<svg width="850" height="219" viewBox="0 0 850 219" fill="none" xmlns="http://www.w3.org/2000/svg">
<g clip-path="url(#clip0_62_6)">
<path d="M168.76 95.4901C174.4 100.28 180.58 102.88 186.32 106.12C190.28 108.35 192.31 110.98 191.98 115.61C190.92 130.57 191.18 145.56 191.18 160.55C191.18 163.68 189.69 165.37 187.18 166.82C168.02 177.93 148.91 189.12 129.78 200.26C120 205.96 110.13 211.51 100.42 217.34C97.3302 219.19 94.7002 219.36 91.6302 217.47C86.2502 214.14 80.7802 210.95 75.2502 207.87C72.7502 206.48 71.7602 204.61 71.8102 201.81C71.9202 195.65 71.7702 189.48 71.8502 183.32C71.9002 179.69 70.4702 179.3 67.6402 180.98C62.4902 184.05 57.2502 186.97 52.1502 190.11C49.6002 191.68 47.4502 191.77 44.7802 190.18C31.3302 182.17 17.8202 174.27 4.23016 166.52C1.23016 164.81 0.0801634 162.7 0.0501634 159.32C-0.199837 125.68 0.490163 92.0501 0.930163 58.4201C0.970163 55.6401 1.91016 53.7501 4.41016 52.3501C9.93016 49.2701 15.3702 46.0201 20.7802 42.7501C23.4802 41.1201 25.9002 41.0301 28.6802 42.7701C33.1902 45.6001 37.9102 48.0901 42.5302 50.7501C47.1702 53.4201 47.9302 53.0501 48.0002 47.8501C48.0702 42.3501 48.1302 36.8501 48.0202 31.3601C47.9502 28.1401 49.3202 26.1801 52.1002 24.5901C65.6902 16.8201 79.2102 8.9501 92.6902 0.990097C95.0202 -0.389903 96.8602 -0.279903 99.1402 1.0401C123.92 15.4001 148.73 29.6901 173.54 43.9901C178.3 46.7301 183 49.6001 187.87 52.1401C190.74 53.6401 192.01 55.7101 191.97 58.8901C191.89 65.2201 191.92 71.5501 191.94 77.8801C191.94 80.8401 190.69 82.8001 188.04 84.2701C181.69 87.8001 175.47 91.5801 168.77 95.5001L168.76 95.4901ZM166.83 81.3801C166.83 80.7101 166.83 80.0501 166.83 79.3801C166.77 73.7001 167.68 68.5001 160.69 64.7401C140.33 53.7701 120.5 41.8201 100.54 30.1201C97.4702 28.3201 94.8102 27.9601 91.7202 29.8601C87.0402 32.7401 82.2102 35.3601 77.5102 38.2001C73.1702 40.8201 73.1602 41.1801 77.7202 43.8101C89.1102 50.3801 100.57 56.8301 111.96 63.4001C128.84 73.1201 145.69 82.8801 162.52 92.6901C165.48 94.4201 167.08 94.5001 166.85 90.3701C166.68 87.3801 166.82 84.3801 166.82 81.3801H166.83ZM166.82 137.66C166.82 135 166.85 132.33 166.82 129.67C166.76 124.23 166.48 124.08 161.65 126.86C145.93 135.91 130.22 144.96 114.51 154.01C102.4 160.98 90.2502 167.89 78.1702 174.93C73.6302 177.58 73.7102 178.41 78.3102 181.11C82.3302 183.47 86.4902 185.6 90.3702 188.17C94.3302 190.79 97.6202 190.52 101.77 188.04C119.48 177.46 137.21 166.88 155.38 157.12C163.69 152.66 169.74 148.14 166.83 137.66H166.82ZM47.9302 109.63H48.0002C48.0002 93.3001 48.0202 76.9701 47.9902 60.6301C47.9802 55.5601 47.4202 55.3001 42.9902 57.9101C38.6902 60.4501 34.4702 63.1601 30.0202 65.4101C26.2602 67.3101 24.9602 69.9401 25.0002 74.1401C25.2002 95.4701 25.5402 116.81 24.9302 138.13C24.6802 146.82 26.4102 152.92 35.1602 155.96C37.9302 156.93 40.3102 158.99 42.9302 160.46C47.4102 162.98 47.9202 162.7 47.9302 157.61C47.9602 141.61 47.9402 125.61 47.9402 109.61L47.9302 109.63ZM72.2802 107.32C72.6002 118.69 71.8302 131.17 72.9002 143.63C73.3402 148.73 73.6202 149.07 77.9702 146.57C98.0102 135.06 118 123.46 138.05 111.96C141.03 110.25 141.71 109.14 138.15 107.1C117.81 95.4401 97.5802 83.5901 77.2802 71.8701C73.3302 69.5901 72.3402 70.1901 72.3102 74.7901C72.2302 85.2701 72.2802 95.7501 72.2802 107.32Z" fill="black"/>
<path d="M234.76 102.74C234.76 84.5402 234.97 66.3402 234.66 48.1502C234.53 40.4002 237.4 37.2302 245.3 37.3502C266.53 37.6702 287.77 37.0102 308.99 37.6402C337.85 38.5002 354.78 63.0302 345.5 90.2202C343.79 95.2202 344.83 97.9202 348.2 101.62C360.05 114.63 362.05 129.93 355.39 145.81C348.89 161.31 336.01 169.05 319.55 169.42C294.63 169.99 269.68 169.46 244.74 169.66C237.36 169.72 234.57 166.66 234.68 159.35C234.95 140.48 234.77 121.61 234.77 102.74H234.76ZM267.45 103.65C267.45 113.1 267.52 122.55 267.42 131.99C267.36 137.6 269.28 141.05 275.52 141C289.01 140.89 302.51 141.03 316.01 140.84C323.15 140.74 326.02 136.5 326.13 129.65C326.26 122.41 323.42 117.83 315.79 117.55C308.38 117.28 300.94 117.5 293.52 117.35C285.64 117.18 274.21 99.9902 277.05 92.7302C278.37 89.3602 281.38 90.0002 283.94 89.9302C291.02 89.7602 298.12 89.9802 305.19 89.7102C312.73 89.4202 315.75 84.8602 315.84 77.7002C315.94 70.1802 312.41 66.3702 304.87 66.3502C295.42 66.3202 285.97 66.4502 276.53 66.2502C270.14 66.1102 267.27 68.8902 267.39 75.3102C267.57 84.7502 267.44 94.2002 267.44 103.65H267.45Z" fill="black"/>
<path d="M469.63 169.58C457.15 169.58 444.67 169.5 432.2 169.61C425.23 169.67 422.44 167.58 424.67 159.88C430.11 141.13 429.82 141.05 449.31 141.04C465.83 141.04 482.36 140.91 498.88 141.07C507.11 141.15 512.681 138.93 512.711 129.29C512.741 119.84 507.71 117.12 499.18 117.32C487.05 117.6 474.9 117.58 462.76 117.3C436.91 116.69 422.58 102.13 422.66 76.9001C422.73 52.9901 437.89 37.9301 462.91 37.5301C483.14 37.2001 503.38 37.6201 523.61 37.3801C532.22 37.2801 534.02 40.6401 531.68 48.6001C526.56 66.0601 526.67 66.2401 508.08 66.2501C494.25 66.2501 480.43 66.3101 466.6 66.2701C459.19 66.2501 454.1 68.5601 454.13 77.1601C454.15 85.4801 458.14 89.7401 466.41 89.8001C479.56 89.8901 492.72 89.7001 505.87 89.9301C530.09 90.3501 545.24 104.95 545.47 127.83C545.72 152.27 530.28 168.78 506.05 169.52C493.92 169.89 481.77 169.58 469.63 169.59V169.58Z" fill="black"/>
<path d="M589.94 99.8301C604.75 82.6501 618.24 68.1701 630.32 52.5901C639.13 41.2301 648.99 34.8001 663.66 37.3901C668.79 38.3001 676.23 34.8501 678.65 39.8101C681.18 45.0101 674 48.6601 670.77 52.5801C658.56 67.4101 646.07 82.0401 633.21 96.3101C628.37 101.68 628.19 105.36 633.13 110.81C647.83 127.04 662.02 143.74 676.38 160.29C678.09 162.25 680.88 164.14 679.47 167.13C678.12 170 674.87 169.51 672.24 169.56C666.51 169.68 660.75 169.27 655.05 169.71C647.25 170.31 641.65 167.35 636.69 161.39C625.28 147.65 613.44 134.26 601.72 120.78C598.48 117.05 595.05 113.49 589.93 107.92C589.93 126.14 589.49 141.86 590.09 157.53C590.45 166.96 586.81 169.87 577.74 169.79C558.5 169.62 558.49 169.98 558.49 150.52C558.49 117.13 558.76 83.7501 558.33 50.3701C558.21 41.0001 560.75 37.0601 570.77 37.2501C589.91 37.6101 589.92 37.1301 589.93 56.7401C589.93 70.1001 589.93 83.4701 589.93 99.8501L589.94 99.8301Z" fill="black"/>
<path d="M783.811 66.2401C768.291 66.2401 755.571 65.7701 742.911 66.3801C731.021 66.9501 731.251 59.5701 731.131 51.2601C731.011 42.9001 731.711 37.0301 742.811 37.2301C774.521 37.7901 806.261 37.7301 837.981 37.2701C848.561 37.1201 849.221 42.9001 849.021 50.8001C848.821 58.7201 850.061 67.0801 837.781 66.3101C831.061 65.8901 824.261 66.6301 817.541 66.1701C809.221 65.6101 806.211 68.9001 806.331 77.2801C806.701 103.26 806.551 129.25 806.371 155.24C806.341 159.99 808.471 166.82 802.151 168.46C793.771 170.63 784.771 171.19 776.411 167.64C773.791 166.53 773.891 163.04 773.881 160.34C773.851 134.35 773.941 108.37 773.831 82.3801C773.801 76.2501 778.461 72.9701 783.821 66.2301L783.811 66.2401Z" fill="black"/>
<path d="M688.441 102.91C688.441 85.04 688.721 67.16 688.321 49.29C688.131 40.76 690.901 37.25 699.901 37.26C721.061 37.28 721.061 36.91 721.061 58.12C721.061 90.83 721.101 123.55 721.021 156.26C720.991 168.54 719.941 169.46 707.771 169.62C694.884 169.8 688.437 163.413 688.431 150.46C688.431 134.61 688.431 118.76 688.431 102.91H688.441Z" fill="black"/>
<path d="M403.8 104.39C403.8 122.58 403.55 140.77 403.91 158.95C404.06 166.84 400.91 169.54 393.21 169.73C372.18 170.23 372.18 170.48 372.18 149.15C372.18 116.15 372.46 83.14 372.03 50.14C371.9 40.49 375.17 36.25 384.83 37.44C385.16 37.48 385.5 37.44 385.84 37.44C397.807 37.3467 403.793 43.1633 403.8 54.89C403.8 71.39 403.8 87.89 403.8 104.4V104.39Z" fill="black"/>
<path d="M83.96 109.13C83.96 103.81 83.98 98.49 83.96 93.18C83.95 90.11 85.02 89.23 87.87 90.9C97.34 96.42 106.86 101.87 116.38 107.31C118.97 108.79 118.85 110.19 116.42 111.6C106.81 117.21 97.18 122.8 87.56 128.38C84.9 129.92 83.95 128.8 83.96 126.08C83.98 120.43 83.96 114.78 83.96 109.13Z" fill="black"/>
</g>
<defs>
<clipPath id="clip0_62_6">
<rect width="849.04" height="218.82" fill="white"/>
</clipPath>
</defs>
</svg>
