<svg width="959" height="150" viewBox="0 0 959 150" fill="none" xmlns="http://www.w3.org/2000/svg">
<g clip-path="url(#clip0_3_14)">
<path d="M64 32.03C58.26 34.28 52.45 36.45 47.5 40.42C27.29 56.63 25.38 86.17 43.47 105C60.43 122.66 90.22 121.79 106.81 103.23C114.58 94.54 122.52 86 130.41 77.41C131.85 75.84 133.04 74.47 131.03 72.36C120.7 61.51 111.74 49.31 100.19 39.7C86.03 27.92 69.09 24.54 51.06 25.27C33.3 26 18.69 33.24 6.94002 46.72C5.92002 44.68 7.15002 43.47 7.74002 42.23C29.86 -4.37999 93.22 -14.08 128.19 23.8C135.65 31.88 143.17 39.9 150.41 48.16C153.1 51.23 154.76 51.11 157.43 48.16C166.69 37.92 175.1 26.77 185.76 17.94C207.34 0.070013 231.97 -4.71999 258.33 4.80001C285.67 14.67 301.75 34.94 306.8 63.44C311.26 88.58 292.63 112.67 265.6 117.75C256.92 119.38 248.5 119.34 244.06 117.64C244.12 115.88 245.69 116.28 246.63 115.96C267.47 108.93 279.83 88.81 276.4 67.45C273.13 47.1 255.09 31.25 234.15 31.04C222.43 30.92 211.71 34.8 203.41 43.34C194.47 52.52 186.06 62.23 177.4 71.69C175.97 73.26 174.74 74.63 176.76 76.74C187.22 87.69 196.41 99.85 207.92 109.79C217.84 118.35 229.54 122.66 242.62 123.37C257.24 124.16 271.63 123.9 284.74 115.98C290.76 112.34 295.97 107.78 300.8 102.5C301.92 104.4 300.66 105.59 300.09 106.8C278.13 153.42 214.59 163.22 179.66 125.38C172.2 117.3 164.69 109.27 157.44 101.02C154.82 98.04 153.17 97.86 150.42 100.91C141.41 110.94 133.13 121.75 122.83 130.47C101.12 148.83 76.21 153.96 49.49 144.18C21.65 133.96 5.98002 113.12 0.700019 83.97C-2.88998 64.13 7.75002 51.95 21.86 41.08C33.59 32.05 46.82 28.93 61.33 30.33C62.27 30.42 63.4 30.28 64 32.03Z" fill="#101010"/>
<path d="M340.12 125.91V23.11H362.15V125.91H340.12Z" fill="#101010"/>
<path d="M429.56 127.82C422.61 127.82 416.07 126.44 409.95 123.67C403.83 120.9 398.46 117.07 393.83 112.18C389.2 107.29 385.58 101.62 382.96 95.18C380.34 88.74 379.03 81.85 379.03 74.51C379.03 67.17 380.34 60.2 382.96 53.77C385.58 47.33 389.2 41.68 393.83 36.81C398.46 31.94 403.83 28.12 409.95 25.36C416.07 22.59 422.6 21.21 429.56 21.21C437.88 21.21 445.54 23.13 452.54 26.97C459.54 30.81 465.34 35.94 469.94 42.35L450.26 52.92C447.71 49.98 444.65 47.63 441.08 45.87C437.51 44.11 433.66 43.23 429.55 43.23C425.44 43.23 421.95 44.04 418.5 45.65C415.05 47.27 412.01 49.5 409.39 52.37C406.77 55.23 404.73 58.55 403.26 62.32C401.79 66.09 401.06 70.15 401.06 74.51C401.06 78.87 401.79 82.86 403.26 86.63C404.73 90.4 406.77 93.72 409.39 96.58C412.01 99.44 415.04 101.7 418.5 103.34C421.95 104.98 425.63 105.8 429.55 105.8C433.66 105.8 437.5 104.91 441.08 103.12C444.65 101.33 447.71 98.95 450.26 95.96L469.94 106.68C465.34 113.04 459.54 118.16 452.54 122.03C445.54 125.9 437.88 127.83 429.56 127.83V127.82Z" fill="#101010"/>
<path d="M483.17 125.91V23.11H521.94C527.57 23.11 532.67 24.54 537.25 27.41C541.83 30.27 545.46 34.09 548.15 38.87C550.84 43.64 552.19 48.87 552.19 54.55C552.19 60.23 550.81 65.59 548.04 70.34C545.27 75.09 541.59 78.88 536.99 81.72C532.39 84.56 527.37 85.98 521.94 85.98H505.2V125.93H483.17V125.91ZM505.2 63.94H519.45C521.41 63.94 523.19 63.44 524.81 62.43C526.43 61.43 527.72 60.09 528.7 58.43C529.68 56.77 530.17 54.93 530.17 52.92C530.17 50.91 529.68 49.08 528.7 47.41C527.72 45.75 526.42 44.41 524.81 43.41C523.19 42.41 521.41 41.9 519.45 41.9H505.2V63.93V63.94Z" fill="#101010"/>
<path d="M670.56 125.91H654.63L622.17 81.34L614.46 90.59V125.91H602.12V23.11H614.46V71.43L654.92 23.11H671L630.25 71.65L670.56 125.92V125.91Z" fill="#101010"/>
<path d="M709.11 127.82C702.35 127.82 696.2 126.08 690.64 122.61C685.08 119.14 680.65 114.47 677.35 108.62C674.05 102.77 672.39 96.3001 672.39 89.2001C672.39 83.8201 673.34 78.7901 675.25 74.1101C677.16 69.4401 679.79 65.3201 683.14 61.7701C686.49 58.2201 690.4 55.4401 694.85 53.4401C699.3 51.4301 704.05 50.4301 709.1 50.4301C715.86 50.4301 722.01 52.1701 727.57 55.6401C733.13 59.1201 737.56 63.7901 740.86 69.6701C744.16 75.5401 745.82 82.0601 745.82 89.2001C745.82 94.5401 744.87 99.5301 742.96 104.18C741.05 108.83 738.42 112.93 735.07 116.48C731.72 120.03 727.82 122.81 723.39 124.81C718.96 126.82 714.2 127.82 709.11 127.82ZM709.11 115.49C713.71 115.49 717.86 114.28 721.56 111.85C725.26 109.43 728.17 106.22 730.3 102.23C732.43 98.2401 733.49 93.9001 733.49 89.2001C733.49 84.5001 732.4 80.0001 730.22 75.9801C728.04 71.9701 725.12 68.7601 721.45 66.3601C717.78 63.9601 713.67 62.7601 709.11 62.7601C704.55 62.7601 700.37 63.9701 696.7 66.4001C693.03 68.8201 690.12 72.0401 687.96 76.0601C685.81 80.0701 684.73 84.4601 684.73 89.2001C684.73 93.9401 685.83 98.5401 688.03 102.53C690.23 106.52 693.19 109.68 696.92 112C700.64 114.33 704.7 115.49 709.11 115.49Z" fill="#101010"/>
<path d="M758.1 125.91V52.48H770.44V61.66C773.03 58.23 776.31 55.5 780.28 53.47C784.25 51.44 788.55 50.42 793.2 50.42C796.04 50.42 798.78 50.79 801.42 51.52L796.43 63.86C794.42 63.22 792.46 62.91 790.56 62.91C786.89 62.91 783.52 63.8 780.46 65.59C777.4 67.38 774.96 69.79 773.15 72.82C771.34 75.86 770.43 79.23 770.43 82.95V125.91H758.09H758.1Z" fill="#101010"/>
<path d="M838.94 127.82C832.18 127.82 826.03 126.08 820.47 122.61C814.91 119.14 810.48 114.47 807.18 108.62C803.88 102.77 802.22 96.3001 802.22 89.2001C802.22 83.8201 803.17 78.7901 805.08 74.1101C806.99 69.4401 809.62 65.3201 812.97 61.7701C816.32 58.2201 820.23 55.4401 824.68 53.4401C829.13 51.4301 833.88 50.4301 838.93 50.4301C844.46 50.4301 849.54 51.5401 854.17 53.7701C858.8 56.0001 862.76 59.0901 866.07 63.0601C869.37 67.0301 871.85 71.6301 873.49 76.8601C875.13 82.1001 875.73 87.7001 875.29 93.6801H815.37C815.96 97.8401 817.33 101.55 819.48 104.8C821.63 108.06 824.39 110.64 827.74 112.55C831.09 114.46 834.83 115.44 838.94 115.49C843.35 115.49 847.33 114.35 850.91 112.08C854.48 109.8 857.37 106.68 859.57 102.72L872.13 105.66C869.19 112.17 864.76 117.5 858.84 121.63C852.92 125.77 846.28 127.83 838.94 127.83V127.82ZM815.01 83.9801H862.89C862.5 79.8701 861.18 76.1101 858.92 72.7101C856.67 69.3101 853.8 66.58 850.33 64.5201C846.85 62.4601 843.06 61.4401 838.95 61.4401C834.84 61.4401 831.07 62.4401 827.64 64.4501C824.21 66.4601 821.39 69.1601 819.16 72.5601C816.93 75.9601 815.55 79.7701 815.01 83.9801Z" fill="#101010"/>
<path d="M946.3 52.4801H958.64V125.91H946.3L945.79 113.5C943.49 117.76 940.32 121.21 936.28 123.85C932.24 126.49 927.43 127.82 921.85 127.82C916.27 127.82 911.42 126.8 906.72 124.77C902.02 122.74 897.87 119.92 894.27 116.33C890.67 112.73 887.87 108.58 885.86 103.88C883.85 99.1801 882.85 94.1101 882.85 88.6801C882.85 83.2501 883.83 78.5001 885.79 73.8501C887.75 69.2001 890.48 65.1201 893.98 61.6201C897.48 58.1201 901.53 55.3801 906.13 53.4001C910.73 51.4201 915.68 50.4301 920.96 50.4301C926.74 50.4301 931.8 51.7901 936.16 54.5101C940.52 57.2301 944.04 60.7401 946.73 65.0501L946.29 52.4901L946.3 52.4801ZM921.63 115.85C926.48 115.85 930.67 114.66 934.22 112.29C937.77 109.92 940.51 106.7 942.44 102.63C944.37 98.5701 945.34 94.0901 945.34 89.1901C945.34 84.2901 944.36 79.6801 942.4 75.6401C940.44 71.6001 937.69 68.4001 934.14 66.0201C930.59 63.6501 926.42 62.4601 921.62 62.4601C916.82 62.4601 912.37 63.6601 908.4 66.0601C904.44 68.4601 901.29 71.6801 898.96 75.7201C896.63 79.7601 895.47 84.2501 895.47 89.1901C895.47 94.1301 896.67 98.6301 899.07 102.66C901.47 106.7 904.65 109.91 908.62 112.28C912.59 114.65 916.92 115.84 921.62 115.84L921.63 115.85Z" fill="#101010"/>
</g>
<defs>
<clipPath id="clip0_3_14">
<rect width="958.64" height="149.02" fill="white"/>
</clipPath>
</defs>
</svg>
