<svg width="5026" height="1085" viewBox="0 0 5026 1085" fill="none" xmlns="http://www.w3.org/2000/svg">
<path d="M5026 813.4C5021.97 818.42 5016.67 820.14 5010.33 819.95C4979.01 819.01 4947.69 819.49 4916.37 819.72C4903.5 819.81 4899.88 816.02 4899.88 802.89C4899.92 747.67 4900.02 692.46 4900.22 637.24C4900.27 621.77 4904.57 607.07 4908.98 592.41C4912.81 579.69 4916.54 566.94 4920.22 554.18C4922.43 546.51 4920.19 543 4912.49 541.41C4907.42 540.36 4902.5 541.4 4897.71 542.69C4893.18 543.91 4891.84 547.54 4891.99 552.02C4892.48 566.67 4891.39 581.26 4890 595.83C4885.04 647.75 4872.51 697.36 4843.89 741.75C4813.41 789.01 4769.86 816.02 4714.11 823.75C4677.22 828.87 4640.41 829.76 4603.85 821.7C4524.59 804.22 4469.56 757.05 4436.65 683.71C4423.9 655.31 4417.58 625.04 4413.8 594.21C4411.21 573.06 4409.41 551.86 4410.2 530.55C4413.88 432.32 4453.89 353.52 4536.86 298.69C4578 271.5 4624 258.17 4673.31 255.81C4730.49 253.07 4784.58 264.68 4835.3 290.83C4898.08 323.19 4935.52 375.63 4953.28 442.95C4957.24 457.95 4952.42 463.82 4936.88 463.02C4910.23 461.65 4883.58 462.43 4856.94 462.39C4852.28 462.39 4847.61 462.68 4842.95 462.5C4833.24 462.13 4829.39 459.12 4826.2 449.83C4825.55 447.94 4825.02 446.02 4824.46 444.11C4813.8 407.81 4789.48 384.92 4753.61 374.79C4715.42 364 4676.77 363.28 4638.18 373.61C4591.27 386.16 4561.3 416.25 4548.46 462.54C4532.72 519.26 4533.19 576.2 4550.05 632.74C4565.03 682.98 4600.76 711.17 4653.06 715.96C4675.25 717.99 4697.02 717.14 4718.44 711.51C4760.32 700.5 4786.54 674.19 4794.98 631.26C4795.81 627.05 4796.08 622.67 4796.04 618.38C4795.95 608.91 4792.45 604.95 4782.95 604.32C4775.66 603.83 4768.3 604.25 4760.97 604.35C4735.66 604.7 4710.34 603.59 4685.02 604.7C4671.97 605.27 4667.88 600.74 4667.91 587.45C4667.95 567.16 4667.97 546.87 4667.91 526.59C4667.87 512.99 4671.07 509.54 4684.99 509.54C4728.31 509.52 4771.63 509.63 4814.96 509.71C4862.61 509.8 4910.27 509.92 4957.92 509.99C4969.67 510.01 4981.2 511.31 4992.19 515.66C5010.42 522.87 5021.27 536.06 5024.1 555.58C5024.34 557.21 5024.29 558.92 5025.99 559.9V813.43L5026 813.4Z" fill="#202020"/>
<path d="M0 521.939C0.99 521.959 1.98 521.989 2.97 522.009C-1.81 527.959 3.42 533.879 3.02 539.809C1.67 540.009 0.66 540.699 0 541.889C0 535.249 0 528.589 0 521.939Z" fill="#C0F720"/>
<path d="M542.18 0.420711C548.07 -0.139289 553.96 -0.139289 559.82 0.430711C572.39 2.00071 583.34 7.44071 593.14 15.1707C598.35 19.2807 603.19 23.9007 607.92 28.5807C636.33 56.6707 664.64 84.8507 693.14 112.851C722.23 141.431 764.33 140.711 791.95 111.821C808.07 94.9507 825 79.0107 842.28 63.3707C851.42 55.1007 859.62 45.9207 867.36 36.2907C879.47 21.2207 893.63 8.77071 913.37 4.91071C943.8 -1.03929 969.21 8.69071 990.01 30.9007C1006.85 48.8807 1023.74 66.8107 1041.72 83.6607C1051.68 92.9907 1061.84 102.121 1072.06 111.151C1100.69 136.451 1104.25 173.951 1080.33 203.841C1074.12 211.601 1066.87 218.581 1059.82 225.641C1036.77 248.731 1013.59 271.691 990.46 294.701C982.41 302.711 975.07 311.251 969.6 321.301C958.57 341.591 958.45 361.881 969.25 382.251C974.12 391.441 980.6 399.421 987.87 406.821C1013.52 432.951 1039.16 459.091 1064.73 485.311C1073.1 493.901 1080.96 502.931 1087.56 513.001C1096.95 527.331 1098.94 542.581 1093.15 558.681C1087.5 574.421 1079.94 588.651 1067.21 600.481C1040.39 625.401 1014.64 651.461 988.4 677.001C980.75 684.451 972.44 691.071 963.05 696.281C948.64 704.281 933.45 706.271 917.73 701.521C901.95 696.751 887.91 689.171 876.18 676.981C848.94 648.691 821.64 620.441 793.2 593.321C791.75 591.941 790.29 590.581 788.84 589.211C764.21 566.021 735.52 563.291 706.83 581.461C695.23 588.811 685.34 598.271 675.25 607.441C646.88 633.211 621.19 661.631 594.57 689.131C585.77 698.221 576.85 707.191 567.94 716.171C566.07 718.061 564.11 719.891 562.03 721.541C553.76 728.091 547.56 728.191 539.75 721.321C534.52 716.711 529.76 711.541 524.9 706.521C487.62 668.011 449.17 630.651 411.06 592.971C404.4 586.381 397.05 580.651 388.58 576.551C368.99 567.051 349.47 567.181 330.07 577.191C321.39 581.671 314.04 587.831 307.14 594.671C277.6 623.981 248.05 653.281 218.39 682.471C203.75 696.881 186.45 704.951 165.42 703.781C150.22 702.931 136.62 697.581 125.41 687.661C99.48 664.731 74.57 640.701 51.25 615.101C46.58 609.971 41.26 605.381 36.19 600.851C17.67 584.291 8.11003 563.421 3.00003 539.851C3.41003 533.891 -1.82997 527.971 2.95003 522.021C5.42003 512.971 11.57 506.411 18.16 500.301C45.96 474.491 73.87 448.791 99.91 421.181C108.58 411.991 116.7 402.271 125.41 393.111C149.45 367.861 143.99 332.221 126.73 311.051C115.34 297.091 103.02 284.061 88.68 273.041C86.84 271.631 84.78 270.341 83.38 268.551C68.13 249.071 49.19 233.161 31.97 215.591C26.12 209.621 20.66 203.371 16.44 196.161C2.31003 172.041 2.90003 148.211 18.21 124.801C24.27 115.531 32.32 108.011 40.17 100.341C63.97 77.0907 88.09 54.1607 110.51 29.5507C114.52 25.1507 119.12 21.2207 123.73 17.4207C146.02 -0.919289 171.52 -2.41929 198.34 3.58071C199.86 3.92071 201.33 5.00071 202.54 6.05071C209.57 12.1607 217.25 17.7307 223.33 24.6907C233.09 35.8507 245.1 44.7507 254.15 56.6307C257.88 61.5207 263.88 64.6407 267.98 69.3207C281.13 84.3107 295.41 98.1507 309.96 111.741C320.61 121.681 332.53 129.321 346.89 132.491C365.55 136.621 382.46 131.971 398.09 121.601C408.17 114.921 416.27 106.021 424.78 97.6307C449.66 73.1007 474.35 48.3807 499.14 23.7707C511.19 11.8107 524.9 2.81071 542.18 0.420711ZM619.38 350.911C619.73 359.201 619.84 366.141 621.13 373.061C630.67 424.061 675.31 471.461 741.4 468.091C776.51 466.301 806.07 452.541 827.9 424.911C850.13 396.761 856.62 364.061 851.04 329.001C848.5 313.041 842.48 298.191 832.02 285.651C818.23 269.121 801.61 256.081 782.39 246.161C748.43 228.631 685.07 237.511 657.42 266.391C633.92 290.951 619.3 317.951 619.38 350.911ZM339.92 287.661C339.86 287.661 339.8 287.661 339.74 287.661C339.74 296.311 339.72 304.951 339.74 313.601C339.8 333.721 338.98 334.451 319.19 334.351C298.87 334.251 278.54 334.171 258.22 334.531C246.21 334.741 240.05 340.641 239.74 350.961C239.39 362.391 244.81 368.131 257.26 369.361C259.9 369.621 262.59 369.511 265.25 369.511C285.24 369.511 305.23 369.451 325.22 369.491C337.33 369.511 339.73 371.941 339.76 384.181C339.81 404.801 339.74 425.421 339.82 446.041C339.83 449.681 339.85 453.441 340.71 456.931C342.71 465.021 349.25 469.611 357.73 469.501C366.28 469.391 372.21 464.731 374.03 456.231C374.86 452.351 375.43 448.331 375.46 444.371C375.57 425.091 375.46 405.801 375.42 386.521C375.42 384.191 375.16 381.851 375.37 379.551C375.98 372.841 378.59 370.241 385.46 369.531C388.1 369.261 390.79 369.401 393.45 369.401C412.44 369.431 431.43 369.431 450.42 369.541C454.78 369.561 459.1 369.331 463.28 368.131C472.18 365.571 476.83 358.131 475.36 349.031C473.88 339.831 467.27 334.721 455.66 334.491C442 334.211 428.34 334.321 414.68 334.311C405.35 334.311 396.02 334.611 386.7 334.341C378.82 334.111 376.07 331.171 375.37 323.381C375.22 321.731 375.26 320.061 375.27 318.401C375.35 299.111 375.38 279.831 375.58 260.541C375.63 255.491 375.14 250.541 373.68 245.771C371.62 239.051 366.81 235.391 359.8 234.671C348.12 233.461 340.68 239.441 340.05 251.751C339.44 263.691 339.92 275.691 339.92 287.661Z" fill="#202020"/>
<path d="M4163.58 509.98C4205.58 509.98 4247.57 509.98 4289.57 509.98C4298.9 509.98 4308.19 510.14 4317.43 511.96C4341.14 516.64 4357.89 533.54 4362.03 557.32C4363.29 564.54 4363.9 571.79 4363.9 579.15C4363.88 652.35 4363.96 725.54 4364 798.74C4364 817.37 4361.27 819.87 4342.54 819.77C4314.88 819.62 4287.21 819.72 4259.55 819.71C4255.88 819.71 4252.21 819.85 4248.55 819.62C4241 819.15 4237.72 816.16 4236.55 808.84C4236.24 806.88 4236.3 804.86 4236.31 802.87C4236.36 754.3 4236.42 705.72 4236.51 657.15C4236.55 632.39 4239.64 608.14 4247.96 584.65C4251.39 574.95 4253.94 564.95 4256.85 555.07C4259.34 546.64 4256.47 542.42 4247.58 541.78C4244.28 541.54 4240.88 541.63 4237.61 542.12C4230.83 543.13 4228.14 546.21 4228.49 552.88C4229.44 571.21 4227.75 589.42 4225.62 607.54C4221.42 643.38 4212.97 678.19 4197.72 711.08C4177.15 755.44 4146.82 790.34 4100.9 810.07C4080.83 818.7 4059.81 823.18 4038.17 825.58C4021.89 827.39 4005.6 827.76 3989.27 827.45C3879.85 825.35 3791.07 756.44 3761.77 651C3752.64 618.14 3748.4 584.64 3747.43 550.6C3746.46 516.47 3748.81 482.65 3759.69 450.18C3793.76 348.45 3860.97 281.77 3968.26 261.43C4030.95 249.55 4093.5 254.47 4152.4 280.61C4225.01 312.85 4271.91 367.82 4290.58 445.68C4291.19 448.24 4291.77 450.91 4291.74 453.51C4291.68 458.85 4289.43 461.3 4284.08 462.2C4281.8 462.58 4279.43 462.58 4277.1 462.58C4244.77 462.53 4212.44 462.48 4180.11 462.37C4167.77 462.33 4166.85 461.63 4163.41 449.88C4150.83 407.01 4123.02 380.56 4078.87 371.77C4046.17 365.26 4013.44 364.28 3980.74 371.68C3934.64 382.11 3904.1 410.33 3888.37 454.28C3874.82 492.13 3871.88 531.43 3875.17 571.31C3877 593.57 3880.44 615.52 3887.82 636.7C3904.83 685.53 3939.1 711.93 3990.8 716.08C4015.31 718.05 4039.5 716.08 4062.98 709.27C4108.23 696.16 4129.24 663.07 4133.2 620.96C4134.17 610.65 4129.38 605.39 4119.08 604.17C4116.45 603.86 4113.75 603.94 4111.09 604.04C4081.12 605.19 4051.15 604.12 4021.18 604.32C4007.55 604.41 4003.91 600.79 4004.54 587.01C4005.42 567.73 4006.05 548.47 4004.34 529.21C4004.05 525.9 4004.32 522.62 4005.25 519.34C4006.78 513.92 4010.23 510.83 4015.67 509.94C4017.96 509.56 4020.31 509.33 4022.63 509.33C4069.62 509.3 4116.61 509.3 4163.61 509.3C4163.61 509.54 4163.61 509.77 4163.61 510.01L4163.58 509.98Z" fill="#202020"/>
<path d="M2681.25 264.43C2713.57 264.43 2745.9 264.09 2778.22 264.52C2811.87 264.97 2845.45 266.73 2878.43 274.33C2901.25 279.59 2923.44 286.77 2943.51 298.97C2990.57 327.59 3014.01 369.81 3011.46 424.7C3009.17 474.16 2984.65 509.25 2937.77 527.69C2920.65 534.42 2902.92 538.68 2884.78 541.54C2871.53 543.63 2864.49 558.19 2870.64 570.3C2872.33 573.62 2875.4 574.99 2878.77 575.34C2882.73 575.75 2886.75 575.65 2890.75 575.66C2912.74 575.71 2934.74 575.73 2956.73 575.75C2964.46 575.75 2971.98 577.09 2979.28 579.53C3001.56 586.97 3013.46 602.79 3016.15 625.73C3018.36 644.61 3017.72 663.6 3017.79 682.55C3017.93 722.47 3017.75 762.39 3017.7 802.3C3017.7 803.63 3017.75 804.96 3017.68 806.29C3017.21 816.09 3013.99 819.42 3004.22 819.48C2984.89 819.61 2965.56 819.5 2946.23 819.53C2932.57 819.55 2918.9 819.74 2905.24 819.65C2893.9 819.58 2890.42 816.2 2890.33 804.63C2890.15 782.34 2890.25 760.05 2890.28 737.77C2890.32 707.83 2890.42 677.9 2890.47 647.96C2890.47 644.64 2890.55 641.29 2890.26 637.99C2889.56 630.17 2886.55 626.83 2878.99 624.81C2875.05 623.76 2871.07 623.95 2867.08 624C2832.77 624.36 2798.46 624.89 2764.14 624.95C2741.16 625 2718.18 624.37 2695.2 624.06C2692.87 624.03 2690.52 623.94 2688.2 624.1C2677.56 624.87 2673.84 628.41 2673.38 638.88C2673.09 645.52 2673.47 652.18 2673.49 658.83C2673.58 705.73 2673.65 752.64 2673.73 799.54C2673.73 800.54 2673.78 801.54 2673.75 802.53C2673.38 815.72 2669.31 819.87 2656.18 819.85C2634.85 819.81 2613.53 819.48 2592.2 819.42C2582.87 819.39 2573.54 819.85 2564.21 819.85C2550.47 819.85 2546.15 815.7 2546.02 802.12C2545.89 787.82 2546.12 773.51 2546.12 759.21C2546.13 608.52 2546.12 457.82 2546.12 307.13C2546.12 298.48 2545.89 289.83 2546.03 281.19C2546.26 267.54 2549.78 263.97 2563.26 263.94C2602.58 263.86 2641.91 263.91 2681.23 263.91C2681.23 264.08 2681.23 264.24 2681.23 264.41L2681.25 264.43ZM2673.4 443.35C2673.4 443.35 2673.48 443.35 2673.52 443.35C2673.52 451.32 2673.54 459.3 2673.52 467.27C2673.49 478.57 2673.12 489.87 2673.49 501.16C2673.79 510.23 2677.54 513.5 2686.58 513.93C2688.57 514.02 2690.58 513.93 2692.57 513.87C2716.1 513.01 2739.66 514.86 2763.19 512.06C2773.03 510.89 2783.14 512.16 2793.13 512.06C2807.1 511.93 2821.09 512.46 2834.97 510.08C2848.11 507.83 2860.49 503.54 2868.97 492.95C2885.67 472.11 2891.24 448.48 2882.32 422.83C2873.61 397.79 2855.15 383.29 2829.37 378.13C2815.31 375.32 2800.96 374.61 2786.67 374.47C2754.05 374.16 2721.42 374.33 2688.79 374.36C2676.18 374.36 2673.47 377.06 2673.44 389.52C2673.4 407.46 2673.43 425.41 2673.43 443.35H2673.4Z" fill="#202020"/>
<path d="M1971.72 459.971C1972.2 400.781 1971.18 341.581 1971.51 282.381C1971.52 279.721 1971.49 277.031 1971.9 274.421C1972.89 268.131 1975.98 265.101 1982.37 264.291C1985.66 263.881 1989.02 263.961 1992.35 263.961C2020.67 263.941 2048.99 264.031 2077.32 263.911C2096.25 263.831 2098.51 265.901 2098.5 285.111C2098.45 381.241 2098.29 477.371 2098.36 573.511C2098.38 595.791 2099.33 618.061 2104.16 639.941C2112.13 675.991 2132.16 701.231 2169.11 710.721C2177.46 712.861 2186.07 714.201 2194.64 715.251C2220.97 718.491 2247.13 717.281 2273.08 711.611C2307.91 704.011 2330.2 683.091 2339.85 648.921C2346.04 627.001 2347.84 604.481 2347.84 581.811C2347.82 484.681 2347.75 387.551 2347.71 290.421C2347.71 286.431 2347.59 282.421 2347.91 278.451C2348.7 268.851 2352.74 264.721 2362.36 264.051C2367.66 263.681 2373.01 264.111 2378.34 264.111C2402.66 264.091 2426.99 264.041 2451.31 264.021C2455.31 264.021 2459.33 263.821 2463.3 264.151C2470.97 264.791 2474.73 268.341 2475.82 275.891C2476.24 278.831 2476.15 281.861 2476.14 284.851C2476.11 340.071 2476.64 395.291 2475.83 450.501C2475.07 502.711 2477.19 554.911 2475.45 607.101C2474.55 634.021 2472.58 660.841 2465.23 686.991C2448.23 747.481 2408.78 786.611 2350.24 807.461C2315.83 819.711 2280.14 825.331 2243.75 827.881C2204.81 830.621 2166.62 826.731 2128.89 817.421C2099.26 810.111 2071.26 798.941 2046.18 781.191C2007.19 753.591 1984.83 715.681 1975.91 669.221C1971.42 645.841 1971.84 622.231 1971.77 598.641C1971.62 552.421 1971.72 506.191 1971.72 459.971Z" fill="#202020"/>
<path d="M3095.71 542.17C3095.71 457.67 3095.71 373.16 3095.71 288.66C3095.71 285.67 3095.66 282.67 3095.82 279.68C3096.41 268.77 3100.34 264.72 3111.02 264.01C3113.34 263.86 3115.68 263.91 3118.01 263.91C3217 263.98 3315.99 264.07 3414.99 264.12C3434.32 264.12 3453.65 263.98 3472.98 263.95C3476.31 263.95 3479.66 263.98 3482.96 264.35C3489.31 265.06 3493.13 268.63 3494.61 274.92C3495.62 279.21 3495.58 283.49 3495.28 287.81C3493.76 309.4 3493.55 330.99 3495.35 352.58C3495.54 354.89 3495.6 357.25 3495.37 359.55C3494.38 369.42 3489.95 373.97 3479.99 374.34C3469.01 374.75 3458 374.53 3447 374.52C3380.67 374.48 3314.34 374.4 3248.02 374.4C3244.04 374.4 3239.99 374.51 3236.08 375.18C3228 376.57 3225.36 379.5 3224.35 387.68C3223.99 390.64 3224.02 393.66 3224.02 396.65C3224 435.91 3223.97 475.17 3224.02 514.43C3224.05 531.69 3226.77 533.77 3244.03 532.61C3270.62 530.82 3297.24 529.51 3323.84 528.04C3363.08 525.87 3402.32 523.62 3441.49 520.46C3448.79 519.87 3456.15 519.57 3463.46 519.78C3472.45 520.04 3475.84 523.63 3476.59 532.68C3476.81 535.32 3476.78 538 3476.69 540.66C3475.88 563.94 3475.82 587.22 3476.71 610.5C3476.76 611.83 3476.75 613.16 3476.72 614.49C3476.46 626.81 3472.5 631.08 3459.92 631.86C3426.34 633.95 3392.75 635.85 3359.18 637.91C3320.62 640.28 3282.06 642.65 3243.51 645.25C3228.11 646.29 3223.69 651.27 3223.72 666.74C3223.8 709.99 3223.94 753.24 3224.18 796.49C3224.29 816.51 3220.45 820.14 3200.23 819.9C3172.57 819.57 3144.91 819.66 3117.25 819.55C3113.92 819.54 3110.56 819.64 3107.26 819.3C3100.21 818.57 3097.02 815.69 3096.29 808.66C3095.7 803.06 3095.84 797.36 3095.84 791.71C3095.82 708.54 3095.82 625.36 3095.82 542.19H3095.67L3095.71 542.17Z" fill="#202020"/>
<path d="M1670.79 263.931C1744.44 263.931 1818.09 263.931 1891.75 263.931C1895.08 263.931 1898.42 263.851 1901.75 263.981C1913.48 264.421 1917.36 268.001 1917.41 279.791C1917.47 293.081 1916.69 306.371 1916.55 319.671C1916.43 330.971 1916.31 342.281 1917.45 353.561C1917.62 355.211 1917.55 356.891 1917.5 358.551C1917.1 370.471 1913.21 374.441 1900.82 374.481C1862.5 374.591 1824.17 374.511 1785.85 374.461C1775.52 374.451 1765.19 374.161 1754.86 374.281C1740.71 374.451 1734.88 380.021 1734.41 394.291C1734.08 404.251 1734.37 414.251 1734.62 424.221C1736.48 500.381 1734.21 576.531 1734.57 652.681C1734.78 697.571 1733.84 742.471 1735.44 787.361C1735.68 793.971 1736.16 800.651 1734.75 807.251C1732.86 816.121 1729.67 819.341 1720.63 819.641C1711.32 819.951 1701.98 819.401 1692.65 819.441C1671.99 819.521 1651.33 819.751 1630.67 819.891C1627.67 819.911 1624.66 819.971 1621.68 819.661C1613.25 818.801 1608.88 814.911 1607.94 806.581C1607.23 800.321 1607.28 793.971 1607.28 787.651C1607.4 655.251 1607.56 522.861 1607.71 390.461C1607.71 388.801 1607.78 387.121 1607.62 385.471C1606.86 377.891 1604.64 375.511 1597.22 374.601C1594.59 374.281 1591.9 374.361 1589.23 374.371C1541.24 374.481 1493.25 374.601 1445.27 374.711C1442.94 374.711 1440.6 374.691 1438.28 374.481C1429.66 373.671 1425.81 370.091 1424.62 361.451C1424.21 358.511 1424.28 355.461 1424.48 352.491C1426.02 329.891 1426.03 307.301 1424.55 284.711C1424.51 284.051 1424.53 283.381 1424.52 282.711C1424.26 267.051 1427.19 263.951 1442.86 263.941C1518.85 263.901 1594.83 263.921 1670.82 263.921L1670.79 263.931Z" fill="#202020"/>
<path d="M388.22 922.66C388.43 899.77 397.91 880.82 414.13 865.28C431.18 848.94 449.19 833.6 466.1 817.14C486.36 797.42 505.881 776.94 525.781 756.85C530.691 751.89 535.57 746.83 540.97 742.44C548.9 735.98 554.44 736.34 562.38 742.92C563.91 744.19 565.321 745.62 566.701 747.06C605.25 787.56 645.38 826.47 685.16 865.75C692.05 872.55 698.26 879.92 703.42 888.12C715.03 906.58 717.14 925.86 708.29 946.07C702.92 958.35 696.08 969.57 686.42 979.08C668.16 997.05 650.14 1015.27 631.97 1033.34C624.01 1041.25 615.28 1048.25 607.55 1056.57C596.92 1068.01 583.22 1075.98 568.19 1081.26C551.38 1087.16 535.47 1085.19 520.13 1076.69C513.4 1072.96 507.28 1068.36 501.77 1063.01C472.67 1034.71 443.58 1006.4 414.6 977.98C407.99 971.5 402.21 964.1 396.4 957.01C390.17 949.4 389.32 938.62 388.24 928.66C388.03 926.69 388.21 924.68 388.21 922.68L388.22 922.66Z" fill="#202020"/>
<path d="M3652.49 740.97C3652.38 791.89 3616.02 827.53 3564.2 827.24C3510.49 826.93 3477.33 789.321 3477.91 739.391C3478.5 688.681 3514.09 653.661 3565.7 653.841C3615.97 654.021 3652.6 690.79 3652.49 740.97Z" fill="#202020"/>
<path d="M818.63 352.469C818.24 398.449 781.79 434.149 735.48 433.929C689.62 433.709 653.19 397.049 654.11 350.919C654.94 309.139 684.8 269.629 737.25 269.949C781.87 270.229 819.02 307.809 818.64 352.469H818.63Z" fill="#202020"/>
</svg>
