<?xml version="1.0" encoding="UTF-8"?>
<svg id="Layer_1" data-name="Layer 1" xmlns="http://www.w3.org/2000/svg" viewBox="0 0 1000 291.67">
  <defs>
    <style>
      .cls-1 {
        fill: #231f20;
      }
    </style>
  </defs>
  <rect class="cls-1" x="422.59" y="68.3" width="29.76" height="143.87"/>
  <rect class="cls-1" x="936.35" y="68.3" width="29.76" height="143.87"/>
  <rect class="cls-1" x="469.58" y="104.27" width="29.76" height="107.91"/>
  <path class="cls-1" d="M481.73,60.81c27.74-4.49,24.18,37.12-2.84,28.68-13.94-4.35-12.46-26.2,2.84-28.68Z"/>
  <path class="cls-1" d="M590.19,193.41c-3.77-.82-2.53.62-3.5,2.04-9.13,13.43-18.09,16.85-34.71,14.99-56.13-6.29-48.35-112.18,9.02-107.61,13.23,1.05,18.06,7.79,25.6,16.65.97,1.14-.05,2.95,3.59,1.98v-17.19h27.42l2.35,2.35v107.91c0,10.65-7.22,23.27-15.62,29.75-22.69,17.52-80.24,15.06-86.19-19.58l27.09-3.17c7.45,17.34,44.96,14.97,44.96-5.44v-22.68ZM551.56,181.93c1.82,1.82,7.01,4.54,9.55,5.32,38.28,11.75,39.87-71.76-2.33-58.82-16.5,5.06-18.2,42.54-7.21,53.51Z"/>
  <path class="cls-1" d="M411.63,212.17h-32.89l-9.55-32.69-52.15-.25-10.35,32.94h-32.89l49.51-143.97,38.99,1.65,49.33,142.32ZM323.91,155.88h36.03l-16.46-53.18c-3.15-.65-2.23,1.2-3.06,3.12-6.58,15.17-9.29,34.73-16.5,50.06Z"/>
  <path class="cls-1" d="M735.86,212.17h-29.76v-71.16c0-1-4.79-8.2-6.3-9.35-7.2-5.49-18.86-4.91-25.84.72-2.28,1.84-7.02,9.48-7.02,11.76v68.03h-29.76v-107.91h28.19l.02,18.77c12.74-19.41,37.51-27.6,57.15-12.5,4.07,3.13,13.32,16.62,13.32,21.11v80.54Z"/>
  <path class="cls-1" d="M787.55,212.17l50.84-143.98,36.66.32,48.77,143.66h-30.54l-11.57-31.91-51.96-.24-11.65,32.15h-30.54ZM873.7,155.88l-18.01-54.75-18.01,54.75h36.03Z"/>
  <g>
    <rect class="cls-1" x="40.4" y="63.61" width="32.89" height="154.82"/>
    <rect class="cls-1" x="162.58" y="63.61" width="31.33" height="154.82"/>
    <rect class="cls-1" x="101.45" y="64.97" width="32.1" height="152.03" transform="translate(-15.07 14.06) rotate(-6.44)"/>
  </g>
</svg>