<svg width="69" height="52" viewBox="0 0 69 52" fill="none" xmlns="http://www.w3.org/2000/svg">
<g clip-path="url(#clip0_38_4694)">
<path d="M68.4126 22.4889H44.0302V16.4551H68.4126V22.4889Z" fill="#101010" stroke="#101010" stroke-width="0.278217"/>
<path d="M65.2095 22.4935H44.0302V6.98481H65.2095V22.4935Z" fill="#101010" stroke="#101010" stroke-width="0.278217"/>
<path d="M56.3444 22.4919H44.0302V0.674509H56.3444V22.4919Z" fill="#101010" stroke="#101010" stroke-width="0.278217"/>
<path d="M58.8218 22.4957H44.0302V3.14375H58.8218V22.4957Z" fill="#101010" stroke="#101010" stroke-width="0.278217"/>
<path d="M56.3465 22.4899H44.0302V3.14375H56.3465V22.4899Z" fill="#101010" stroke="#101010" stroke-width="0.278217"/>
<path d="M31.4096 22.7656H43.7587V25.6437H31.4096V22.7656Z" fill="#101010" stroke="#101010" stroke-width="0.278217"/>
<path d="M58.8325 22.4855H44.0302V6.97541H58.8325V22.4855Z" fill="#101010" stroke="#101010" stroke-width="0.278217"/>
<path d="M56.3465 22.4855H44.0302V6.97541H56.3465V22.4855Z" stroke="#101010" stroke-width="0.278217"/>
<path d="M51.6267 22.4925H44.0302V13.2952H51.6267V22.4925Z" stroke="#101010" stroke-width="0.278217"/>
<path d="M65.2202 22.4919H44.0302V16.4647H65.2202V22.4919Z" fill="#101010" stroke="#101010" stroke-width="0.278217"/>
<path d="M58.8325 22.4919H44.0302V16.4647H58.8325V22.4919Z" stroke="#101010" stroke-width="0.278217"/>
<path d="M56.3465 22.4919H44.0302V16.4647H56.3465V22.4919Z" stroke="#101010" stroke-width="0.278217"/>
<path d="M51.6379 22.4919H44.0302V16.4647H51.6379V22.4919Z" stroke="#101010" stroke-width="0.278217"/>
<path d="M46.6418 34.5227C44.4934 34.9047 43.3475 36.528 43.3475 39.3449C43.3475 42.2097 44.8753 44.1195 47.1193 44.1195C48.2174 44.1195 49.1723 43.7375 51.1776 42.7348V45.0744C48.7426 46.2202 47.3102 46.5067 45.4005 46.5067C43.252 46.5067 41.724 45.9815 40.5304 44.6924C39.2891 43.451 38.6206 41.8277 38.6206 39.9655C38.6206 35.9073 41.6763 33.0903 46.1166 33.0903C49.0291 33.0903 51.0821 34.475 51.0821 36.4325C51.0821 37.7216 50.1271 38.6288 48.7425 38.6288C48.0264 38.6288 47.4534 38.3901 46.6418 37.9604M35.8992 39.9656C37.8568 37.5306 38.573 36.528 38.573 35.3343C38.573 34.1407 37.618 33.0902 36.2812 33.0902C35.5172 33.0902 34.8012 33.52 34.4669 33.902V38.9152L31.2679 43.2122V33.4723H28.2123L23.1512 41.8278V33.4723H21.4323L16.801 34.5228V35.7164L19.3315 35.955V46.3158H22.5304L27.4005 38.2946V46.3158H30.9813M7.10889 44.6924H7.82504C10.4032 44.6924 11.8356 43.1168 11.8356 39.9655C11.8356 37.3397 10.6898 35.9073 8.54113 35.9073C8.25468 35.9073 7.82498 35.955 7.10883 36.0983V44.6924L7.10889 44.6924ZM7.10889 50.3263L9.20962 50.8037V51.9973H0.949776V50.8037L2.85951 50.3263V35.9072H0.758789V34.7136L5.77198 33.1858H7.10896V34.9047C9.4484 33.4723 10.2601 33.2336 11.5014 33.2336C14.2707 33.2336 16.3714 35.8118 16.3714 39.3928C16.3714 43.4988 13.5545 46.3158 9.25735 46.3158C8.77991 46.3158 7.96823 46.2681 7.10889 46.2203" fill="#101010"/>
</g>
<defs>
<clipPath id="clip0_38_4694">
<rect width="67.8154" height="51.4583" fill="white" transform="translate(0.75 0.542236)"/>
</clipPath>
</defs>
</svg>
